<?xml version="1.0" encoding="utf-8"?>
<svg viewBox="0 0 128 128" xmlns="http://www.w3.org/2000/svg">
  <path d="M 64 5.985 C 32.016 5.985 5.985 32.028 5.985 64 C 5.985 95.972 32.028 122.015 64 122.015 C 95.972 122.015 122.015 95.972 122.015 64 C 122.015 32.028 95.972 5.985 64 5.985 Z M 63.914 11.139 C 65.977 11.193 67.622 12.887 67.621 14.956 C 67.621 17.895 64.441 19.732 61.895 18.263 C 60.714 17.58 59.987 16.32 59.987 14.956 C 59.987 12.805 61.764 11.078 63.914 11.139 Z M 72.653 17.423 C 86.216 19.964 97.975 28.339 104.808 40.325 L 100.304 50.487 C 99.531 52.242 100.329 54.304 102.071 55.09 L 110.736 58.931 C 111.005 61.64 111.038 64.367 110.834 67.081 L 106.011 67.081 C 105.532 67.081 105.336 67.4 105.336 67.866 L 105.336 70.075 C 105.336 75.279 102.403 76.42 99.825 76.703 C 97.371 76.985 94.658 75.672 94.315 74.174 C 92.867 66.037 90.461 64.307 86.656 61.3 C 91.381 58.305 96.291 53.875 96.291 47.959 C 96.291 41.565 91.909 37.539 88.927 35.563 C 84.729 32.802 80.09 32.249 78.838 32.249 L 29.009 32.249 C 35.899 24.553 45.135 19.342 55.286 17.423 L 61.165 23.584 C 62.49 24.971 64.687 25.033 66.074 23.695 Z M 18.405 45.676 C 20.471 45.736 22.113 47.428 22.112 49.493 C 22.112 52.431 18.932 54.269 16.386 52.799 C 15.206 52.117 14.478 50.857 14.478 49.493 C 14.478 47.342 16.255 45.615 18.405 45.676 Z M 109.411 45.848 C 111.476 45.908 113.119 47.599 113.117 49.665 C 113.117 52.603 109.937 54.44 107.392 52.971 C 106.211 52.289 105.483 51.028 105.483 49.665 C 105.483 47.513 107.261 45.787 109.411 45.848 Z M 25.597 46.462 L 32.249 46.462 L 32.249 76.457 L 18.822 76.457 C 17.164 70.635 16.648 64.546 17.301 58.526 L 25.524 54.869 C 27.279 54.083 28.076 52.034 27.291 50.279 Z M 53.359 46.781 L 69.204 46.781 C 70.026 46.781 74.984 47.726 74.984 51.445 C 74.984 54.525 71.18 55.63 68.05 55.63 L 53.347 55.63 Z M 53.359 68.332 L 65.497 68.332 C 66.602 68.332 71.425 68.652 72.959 74.813 C 73.438 76.703 74.506 82.864 75.23 84.84 C 75.954 87.049 78.887 91.467 82.017 91.467 L 101.826 91.467 C 100.499 93.246 99.047 94.927 97.481 96.499 L 89.418 94.769 C 87.54 94.364 85.687 95.567 85.282 97.444 L 83.367 106.379 C 70.909 112.024 56.609 111.956 44.203 106.195 L 42.289 97.26 C 41.884 95.383 40.043 94.18 38.165 94.585 L 30.273 96.278 C 28.809 94.768 27.448 93.161 26.199 91.467 L 64.577 91.467 C 65.006 91.467 65.301 91.394 65.301 90.989 L 65.301 77.415 C 65.301 77.022 65.006 76.936 64.577 76.936 L 53.347 76.936 Z M 35.649 99.42 C 37.715 99.481 39.357 101.172 39.355 103.237 C 39.355 106.176 36.175 108.013 33.63 106.544 C 32.449 105.861 31.722 104.601 31.722 103.237 C 31.722 101.086 33.499 99.359 35.649 99.42 Z M 92.167 99.592 C 94.233 99.652 95.875 101.344 95.873 103.409 C 95.873 106.347 92.693 108.185 90.148 106.716 C 88.967 106.033 88.24 104.773 88.24 103.409 C 88.24 101.258 90.017 99.531 92.167 99.592 Z" style="fill: rgb(232, 232, 232);"/>
  <path d="M 118.775 64 C 118.775 94.252 94.252 118.775 64 118.775 C 33.749 118.775 9.225 94.252 9.225 64 C 9.225 33.749 33.749 9.225 64 9.225 C 94.252 9.225 118.775 33.749 118.775 64 Z M 117.744 58.71 L 126.286 64 L 117.744 69.29 L 125.084 76.15 L 115.682 79.673 L 121.549 87.835 L 111.62 89.455 L 115.793 98.61 L 105.741 98.254 L 108.048 108.048 L 98.254 105.741 L 98.61 115.793 L 89.455 111.62 L 87.835 121.549 L 79.673 115.682 L 76.15 125.084 L 69.29 117.744 L 64 126.286 L 58.71 117.744 L 51.85 125.084 L 48.327 115.682 L 40.165 121.549 L 38.545 111.62 L 29.39 115.793 L 29.746 105.741 L 19.952 108.048 L 22.259 98.254 L 12.207 98.61 L 16.38 89.455 L 6.451 87.835 L 12.318 79.673 L 2.916 76.15 L 10.256 69.29 L 1.714 64 L 10.256 58.71 L 2.916 51.85 L 12.318 48.327 L 6.451 40.165 L 16.38 38.545 L 12.207 29.39 L 22.259 29.746 L 19.952 19.952 L 29.746 22.259 L 29.39 12.207 L 38.545 16.38 L 40.165 6.451 L 48.327 12.318 L 51.85 2.916 L 58.71 10.256 L 64 1.714 L 69.29 10.256 L 76.15 2.916 L 79.673 12.318 L 87.835 6.451 L 89.455 16.38 L 98.61 12.207 L 98.254 22.259 L 108.048 19.952 L 105.741 29.746 L 115.793 29.39 L 111.62 38.545 L 121.549 40.165 L 115.682 48.327 L 125.084 51.85 Z" fill-rule="evenodd" stroke-linecap="round" stroke-linejoin="round" stroke-width="3" style="stroke: rgb(232, 232, 232); fill: rgb(232, 232, 232);"/>
</svg>
